# xmcd CD database file
#
# Track frame offsets:
#	150
#	14417
#	29562
#	49986
#	67018
#	80907
#	97890
#	113115
#	129374
#	146072
#	172995
#
# Disc length: 2564 seconds
#
# Revision: 0
# Processed by: cddbd v1.4PL0 Copyright (c) Steve Scherf et al.
# Submitted via: CDex 1.50
#
DISCID=990a020b
DTITLE=40 below summer - advance music
DYEAR=2003
DGENRE=New Age
TTITLE0=Self Medicate
TTITLE1=Taxi Cab Confession
TTITLE2=Rain
TTITLE3=Breathless
TTITLE4=Better Life
TTITLE5=Monday Song
TTITLE6=F.E.
TTITLE7=Awakening
TTITLE8=Alienation
TTITLE9=A Season In Hell
TTITLE10=Special Track
EXTD=YEAR: 2003
EXTT0=
EXTT1=
EXTT2=
EXTT3=
EXTT4=
EXTT5=
EXTT6=
EXTT7=
EXTT8=
EXTT9=
EXTT10=
PLAYORDER=
